<?xml version="1.0" encoding="iso-8859-1"?>
<!-- Generator: Adobe Illustrator 21.0.0, SVG Export Plug-In . SVG Version: 6.00 Build 0)  -->
<svg xmlns="http://www.w3.org/2000/svg" xmlns:xlink="http://www.w3.org/1999/xlink" version="1.1" id="Capa_1" x="0px" y="0px" viewBox="0 0 512 512" style="enable-background:new 0 0 512 512;" xml:space="preserve" width="512" height="512">
<g>
	<path d="M256,512c140.957,0,256-115.048,256-256C512,115.043,396.951,0,256,0C115.041,0,0,115.05,0,256   C0,396.959,115.05,512,256,512z M256,30c124.617,0,226,101.383,226,226S380.617,482,256,482C131.383,482,30,380.617,30,256   S131.383,30,256,30z"/>
	<path d="M256,452c107.653,0,196-88.367,196-196c0-107.653-88.368-196-196-196C148.362,60,60,148.353,60,256   C60,363.638,148.353,452,256,452z M256,90c91.533,0,166,74.467,166,166s-74.467,166-166,166c-91.533,0-166-74.467-166-166   S164.467,90,256,90z"/>
	<path d="M196,301c4.858,0,10.828-0.794,17.192-2.192C211.794,305.172,211,311.142,211,316c0,24.813,20.187,45,45,45   c24.813,0,45-20.187,45-45c0-4.858-0.794-10.827-2.191-17.192C305.173,300.206,311.142,301,316,301c24.813,0,45-20.187,45-45   s-20.187-45-45-45c-4.859,0-10.827,0.793-17.191,2.191C300.206,206.827,301,200.859,301,196c0-24.813-20.187-45-45-45   c-24.813,0-45,20.187-45,45c0,4.859,0.793,10.827,2.191,17.191C206.827,211.794,200.859,211,196,211c-24.813,0-45,20.187-45,45   S171.187,301,196,301z M196,241c6.217,0,21.703,3.362,34.61,9.675c5.758,2.816,12.667,1.663,17.197-2.868   c4.532-4.531,5.684-11.441,2.868-17.197C244.362,217.704,241,202.217,241,196c0-8.271,6.729-15,15-15s15,6.729,15,15   c0,6.217-3.362,21.704-9.675,34.61c-2.815,5.756-1.664,12.666,2.868,17.197c4.531,4.532,11.441,5.683,17.197,2.868   C294.297,244.362,309.783,241,316,241c8.271,0,15,6.729,15,15s-6.729,15-15,15c-6.216,0-21.703-3.363-34.612-9.677   c-5.757-2.815-12.666-1.663-17.197,2.868c-4.531,4.531-5.683,11.441-2.868,17.197C267.637,294.297,271,309.784,271,316   c0,8.271-6.729,15-15,15s-15-6.729-15-15c0-6.216,3.363-21.702,9.677-34.612c2.815-5.756,1.663-12.666-2.868-17.197   c-2.879-2.879-6.717-4.394-10.611-4.394c-2.234,0-4.487,0.499-6.586,1.526C217.702,267.637,202.216,271,196,271   c-8.271,0-15-6.729-15-15S187.729,241,196,241z"/>
</g>















</svg>
